<svg xmlns="http://www.w3.org/2000/svg" viewBox="0 0 512 512" width="100%" height="100%">
  <defs>
    <linearGradient id="bgGrad" x1="0%" y1="0%" x2="100%" y2="100%">
      <stop offset="0%" stop-color="#06b6d4" />  <stop offset="60%" stop-color="#0369a1" /> <stop offset="100%" stop-color="#0f172a" /> </linearGradient>
    
    <filter id="shadow" x="-20%" y="-20%" width="140%" height="140%">
      <feDropShadow dx="0" dy="16" stdDeviation="16" flood-color="#020617" flood-opacity="0.6"/>
    </filter>

    <filter id="neonGlow" x="-50%" y="-50%" width="200%" height="200%">
      <feDropShadow dx="0" dy="0" stdDeviation="6" flood-color="#22d3ee" flood-opacity="0.9"/>
      <feDropShadow dx="0" dy="0" stdDeviation="15" flood-color="#3b82f6" flood-opacity="0.6"/>
    </filter>
  </defs>

  <rect width="512" height="512" rx="112" fill="url(#bgGrad)" />

  <g fill="none" stroke="#e0f7fa" stroke-width="7" stroke-linecap="round" filter="url(#neonGlow)" transform="rotate(-25, 262, 255)">
    <path d="M 32,190 A 230 62 0 0 1 492,190" /> <path d="M 32,255 A 230 62 0 0 1 492,255" /> <path d="M 32,320 A 230 62 0 0 1 492,320" /> </g>

  <g fill="none" stroke="#ffffff" stroke-width="46" stroke-linecap="round" stroke-linejoin="round" filter="url(#shadow)">
    <path d="M 140,175 L 140,335" />
    <path d="M 240,175 L 240,335" />
    <path d="M 140,255 L 240,255" />
    
    <path d="M 335,175 L 335,335" />
    <path d="M 335,175 L 385,175 C 425,175 425,255 385,255 L 335,255" />
  </g>

  <g fill="none" stroke="#e0f7fa" stroke-width="7" stroke-linecap="round" filter="url(#neonGlow)" transform="rotate(-25, 262, 255)">
    <path d="M 32,190 A 230 62 0 0 0 492,190" /> <path d="M 32,255 A 230 62 0 0 0 492,255" /> <path d="M 32,320 A 230 62 0 0 0 492,320" /> </g>

  <text x="275" y="422" 
        fill="#ffffff" 
        font-family="system-ui, -apple-system, BlinkMacSystemFont, 'Segoe UI', Roboto, sans-serif" 
        font-size="48" 
        font-weight="900" 
        letter-spacing="2" 
        text-anchor="middle" 
        opacity="0.9" 
        filter="url(#shadow)">DQ5 (PS2)</text>
</svg>
